<svg xmlns="http://www.w3.org/2000/svg" viewBox="0 0 24 24">
  <path fill="#2684FF" d="M.87 18.257c-.248.382-.53.875-.763 1.245a.764.764 0 0 0 .256 1.04l4.965 3.054a.764.764 0 0 0 1.058-.26c.199-.332.454-.763.733-1.221 1.967-3.247 3.945-2.853 7.508-1.146l4.957 2.337a.764.764 0 0 0 1.028-.382l2.364-5.346a.764.764 0 0 0-.382-.996c-1.046-.49-3.125-1.47-4.996-2.36C10.34 10.05 5.27 10.26.87 18.257zM23.131 5.743c.248-.382.531-.875.764-1.245a.764.764 0 0 0-.256-1.04L18.674.404a.764.764 0 0 0-1.058.26c-.199.332-.454.763-.733 1.221-1.967 3.247-3.945 2.853-7.508 1.146L4.418.694a.764.764 0 0 0-1.028.382L1.026 6.422a.764.764 0 0 0 .382.996c1.046.49 3.125 1.47 4.996 2.36 6.346 3.046 11.416 2.836 15.727-4.035z"/>
</svg>
